<?xml version="1.0" encoding="utf-8"?>
<!-- Generator: Adobe Illustrator 23.0.1, SVG Export Plug-In . SVG Version: 6.00 Build 0)  -->
<svg version="1.1" id="Capa_1" xmlns="http://www.w3.org/2000/svg" xmlns:xlink="http://www.w3.org/1999/xlink" x="0px" y="0px"
	 viewBox="0 0 24 24" style="enable-background:new 0 0 24 24;" xml:space="preserve">
<style type="text/css">
	.st0{fill:#FFFFFF;}
</style>
<g>
	<path class="st0" d="M7.1,11.3h4.2V7H7.6C7.3,8.4,7.1,9.9,7.1,11.3z"/>
	<path class="st0" d="M6.2,7H1.1c-0.6,1.3-1,2.8-1.1,4.3h5.7C5.7,9.9,5.9,8.4,6.2,7z"/>
	<path class="st0" d="M7.6,17h3.7v-4.3H7.1C7.1,14.1,7.3,15.6,7.6,17z"/>
	<path class="st0" d="M7.9,5.6h3.4V0C9.9,0.6,8.7,2.9,7.9,5.6z"/>
	<path class="st0" d="M11.3,24v-5.6H7.9C8.7,21.1,9.9,23.4,11.3,24z"/>
	<path class="st0" d="M5.7,12.7H0c0.1,1.5,0.5,3,1.1,4.3h5.1C5.9,15.6,5.7,14.1,5.7,12.7z"/>
	<path class="st0" d="M12.7,0v5.6h3.4C15.3,2.9,14.1,0.6,12.7,0z"/>
	<path class="st0" d="M16.4,7h-3.7v4.3h4.2C16.9,9.9,16.7,8.4,16.4,7z"/>
	<path class="st0" d="M15.1,23.7c2.9-0.8,5.5-2.8,7.1-5.4h-4.7C16.9,20.5,16.1,22.5,15.1,23.7z"/>
	<path class="st0" d="M8.9,0.3C6,1.1,3.4,3.1,1.8,5.6h4.7C7.1,3.5,7.9,1.5,8.9,0.3z"/>
	<path class="st0" d="M22.2,5.6c-1.6-2.5-4.1-4.6-7.1-5.4c1,1.3,1.8,3.3,2.4,5.4H22.2z"/>
	<path class="st0" d="M1.8,18.4c1.6,2.5,4.1,4.6,7.1,5.4c-1-1.3-1.8-3.3-2.4-5.4H1.8z"/>
	<path class="st0" d="M18.3,11.3H24c-0.1-1.5-0.5-3-1.1-4.3h-5.1C18.1,8.4,18.3,9.9,18.3,11.3z"/>
	<path class="st0" d="M12.7,18.4V24c1.4-0.6,2.6-2.9,3.4-5.6H12.7z"/>
	<path class="st0" d="M16.9,12.7h-4.2V17h3.7C16.7,15.6,16.9,14.1,16.9,12.7z"/>
	<path class="st0" d="M17.8,17h5.1c0.6-1.3,1-2.8,1.1-4.3h-5.7C18.3,14.1,18.1,15.6,17.8,17z"/>
</g>
</svg>
